<?xml version="1.0" encoding="UTF-8"?>
<svg id="Layer_1" xmlns="http://www.w3.org/2000/svg" viewBox="0 0 32 32">
  <circle cx="16" cy="16" r="16" fill="#767dff"/>
  <path d="M16,1c8.27,0,15,6.73,15,15s-6.73,15-15,15S1,24.27,1,16,7.73,1,16,1M16,0C7.16,0,0,7.16,0,16s7.16,16,16,16,16-7.16,16-16S24.84,0,16,0h0Z" fill="#4b507e"/>
  <g>
    <path d="M11.33,25.16c-1.88,0-3.41-1.53-3.41-3.41v-11.52c0-1.87,1.53-3.4,3.41-3.4h9.33c1.88,0,3.41,1.52,3.41,3.4v.52c0,.59-.48,1.07-1.07,1.07s-1.07-.48-1.07-1.07v-.52c0-.7-.57-1.26-1.27-1.26h-9.33c-.7,0-1.27.57-1.27,1.26v11.52c0,.7.57,1.27,1.27,1.27h9.33c.7,0,1.27-.57,1.27-1.27v-1.16c0-.59.48-1.07,1.07-1.07s1.07.49,1.07,1.07v1.16c0,1.88-1.53,3.41-3.41,3.41h-9.33Z" fill="#4b507e"/>
    <g>
      <path d="M16,6.84c-.59,0-1.07-.48-1.07-1.07s.48-1.07,1.07-1.07,1.07.49,1.07,1.07-.48,1.07-1.07,1.07Z" fill="#4b507e"/>
      <rect x="14.93" y="5.77" width="2.13" height="1.6" fill="#4b507e"/>
    </g>
    <g>
      <path d="M16,27.3c-.59,0-1.07-.48-1.07-1.07s.48-1.07,1.07-1.07,1.07.49,1.07,1.07-.48,1.07-1.07,1.07Z" fill="#4b507e"/>
      <rect x="14.93" y="24.63" width="2.13" height="1.6" fill="#4b507e"/>
    </g>
  </g>
</svg>